<svg xmlns="http://www.w3.org/2000/svg" xmlns:xlink="http://www.w3.org/1999/xlink" width="1920" zoomAndPan="magnify" viewBox="0 0 1440 1439.999935" height="1920" preserveAspectRatio="xMidYMid meet" version="1.0"><defs><clipPath id="d0210e9f32"><path d="M 50.175781 0 L 1389.824219 0 C 1403.132812 0 1415.894531 5.285156 1425.304688 14.695312 C 1434.714844 24.105469 1440 36.867188 1440 50.175781 L 1440 1392.09375 C 1440 1405.402344 1434.714844 1418.164062 1425.304688 1427.574219 C 1415.894531 1436.984375 1403.132812 1442.269531 1389.824219 1442.269531 L 50.175781 1442.269531 C 36.867188 1442.269531 24.105469 1436.984375 14.695312 1427.574219 C 5.285156 1418.164062 0 1405.402344 0 1392.09375 L 0 50.175781 C 0 36.867188 5.285156 24.105469 14.695312 14.695312 C 24.105469 5.285156 36.867188 0 50.175781 0 Z M 50.175781 0 " clip-rule="nonzero"/></clipPath><clipPath id="c778b6ef2f"><path d="M 0 0 L 1440 0 L 1440 1440 L 0 1440 Z M 0 0 " clip-rule="nonzero"/></clipPath><clipPath id="227a48f79d"><path d="M 50.175781 0 L 1389.824219 0 C 1403.132812 0 1415.894531 5.285156 1425.304688 14.695312 C 1434.714844 24.105469 1440 36.867188 1440 50.175781 L 1440 1392.09375 C 1440 1405.402344 1434.714844 1418.164062 1425.304688 1427.574219 C 1415.894531 1436.984375 1403.132812 1442.269531 1389.824219 1442.269531 L 50.175781 1442.269531 C 36.867188 1442.269531 24.105469 1436.984375 14.695312 1427.574219 C 5.285156 1418.164062 0 1405.402344 0 1392.09375 L 0 50.175781 C 0 36.867188 5.285156 24.105469 14.695312 14.695312 C 24.105469 5.285156 36.867188 0 50.175781 0 Z M 50.175781 0 " clip-rule="nonzero"/></clipPath><clipPath id="d5c08811f8"><rect x="0" width="1440" y="0" height="1440"/></clipPath><clipPath id="66d2cdb980"><path d="M 0.535156 0.15625 L 1032 0.15625 L 1032 796.828125 L 0.535156 796.828125 Z M 0.535156 0.15625 " clip-rule="nonzero"/></clipPath><clipPath id="0e1173ba40"><path d="M 18.535156 0.15625 L 1013.792969 0.15625 C 1023.734375 0.15625 1031.792969 8.214844 1031.792969 18.15625 L 1031.792969 778.828125 C 1031.792969 788.769531 1023.734375 796.828125 1013.792969 796.828125 L 18.535156 796.828125 C 8.59375 796.828125 0.535156 788.769531 0.535156 778.828125 L 0.535156 18.15625 C 0.535156 8.214844 8.59375 0.15625 18.535156 0.15625 Z M 18.535156 0.15625 " clip-rule="nonzero"/></clipPath><clipPath id="4caf4846c8"><path d="M 0.535156 0.15625 L 1031 0.15625 L 1031 796.828125 L 0.535156 796.828125 Z M 0.535156 0.15625 " clip-rule="nonzero"/></clipPath><clipPath id="fb79b25b10"><path d="M 18.535156 0.15625 L 1013.792969 0.15625 C 1023.734375 0.15625 1031.792969 8.214844 1031.792969 18.15625 L 1031.792969 778.828125 C 1031.792969 788.769531 1023.734375 796.828125 1013.792969 796.828125 L 18.535156 796.828125 C 8.59375 796.828125 0.535156 788.769531 0.535156 778.828125 L 0.535156 18.15625 C 0.535156 8.214844 8.59375 0.15625 18.535156 0.15625 Z M 18.535156 0.15625 " clip-rule="nonzero"/></clipPath><clipPath id="11ff402763"><rect x="0" width="1032" y="0" height="797"/></clipPath><clipPath id="2b619b2718"><path d="M 66 98 L 913 98 L 913 691.402344 L 66 691.402344 Z M 66 98 " clip-rule="nonzero"/></clipPath><clipPath id="267b860714"><path d="M 82.894531 98.613281 L 896.375 98.613281 C 905.488281 98.613281 912.875 106 912.875 115.113281 L 912.875 674.902344 C 912.875 684.015625 905.488281 691.402344 896.375 691.402344 L 82.894531 691.402344 C 73.785156 691.402344 66.394531 684.015625 66.394531 674.902344 L 66.394531 115.113281 C 66.394531 106 73.785156 98.613281 82.894531 98.613281 Z M 82.894531 98.613281 " clip-rule="nonzero"/></clipPath><clipPath id="daa1a160b2"><path d="M 0.28125 0.441406 L 847 0.441406 L 847 593.402344 L 0.28125 593.402344 Z M 0.28125 0.441406 " clip-rule="nonzero"/></clipPath><clipPath id="b399cdbac4"><path d="M 16.894531 0.613281 L 830.375 0.613281 C 839.488281 0.613281 846.875 8 846.875 17.113281 L 846.875 576.902344 C 846.875 586.015625 839.488281 593.402344 830.375 593.402344 L 16.894531 593.402344 C 7.785156 593.402344 0.394531 586.015625 0.394531 576.902344 L 0.394531 17.113281 C 0.394531 8 7.785156 0.613281 16.894531 0.613281 Z M 16.894531 0.613281 " clip-rule="nonzero"/></clipPath><clipPath id="c7f17708ce"><rect x="0" width="847" y="0" height="594"/></clipPath><clipPath id="1af7a61455"><path d="M 260.859375 512.917969 L 718.414062 512.917969 L 718.414062 996 L 260.859375 996 Z M 260.859375 512.917969 " clip-rule="nonzero"/></clipPath><clipPath id="e6bcf2427c"><path d="M 489.636719 512.917969 C 363.285156 512.917969 260.859375 620.980469 260.859375 754.285156 C 260.859375 887.589844 363.285156 995.65625 489.636719 995.65625 C 615.984375 995.65625 718.414062 887.589844 718.414062 754.285156 C 718.414062 620.980469 615.984375 512.917969 489.636719 512.917969 Z M 489.636719 512.917969 " clip-rule="nonzero"/></clipPath><clipPath id="9f0110662f"><path d="M 0.859375 0.917969 L 458.414062 0.917969 L 458.414062 483.800781 L 0.859375 483.800781 Z M 0.859375 0.917969 " clip-rule="nonzero"/></clipPath><clipPath id="45a063ac49"><path d="M 229.636719 0.917969 C 103.285156 0.917969 0.859375 108.980469 0.859375 242.285156 C 0.859375 375.589844 103.285156 483.65625 229.636719 483.65625 C 355.984375 483.65625 458.414062 375.589844 458.414062 242.285156 C 458.414062 108.980469 355.984375 0.917969 229.636719 0.917969 Z M 229.636719 0.917969 " clip-rule="nonzero"/></clipPath><clipPath id="489df05597"><rect x="0" width="459" y="0" height="484"/></clipPath><clipPath id="80c745b89b"><path d="M 383.585938 640.242188 L 595.6875 640.242188 L 595.6875 868.917969 L 383.585938 868.917969 Z M 383.585938 640.242188 " clip-rule="nonzero"/></clipPath><clipPath id="924662f187"><path d="M 489.636719 640.242188 C 431.066406 640.242188 383.585938 691.300781 383.585938 754.285156 C 383.585938 817.269531 431.066406 868.328125 489.636719 868.328125 C 548.207031 868.328125 595.6875 817.269531 595.6875 754.285156 C 595.6875 691.300781 548.207031 640.242188 489.636719 640.242188 Z M 489.636719 640.242188 " clip-rule="nonzero"/></clipPath><clipPath id="dcd80c61dc"><path d="M 0.585938 0.242188 L 212.6875 0.242188 L 212.6875 228.359375 L 0.585938 228.359375 Z M 0.585938 0.242188 " clip-rule="nonzero"/></clipPath><clipPath id="4ee805ba4c"><path d="M 106.636719 0.242188 C 48.066406 0.242188 0.585938 51.300781 0.585938 114.285156 C 0.585938 177.269531 48.066406 228.328125 106.636719 228.328125 C 165.207031 228.328125 212.6875 177.269531 212.6875 114.285156 C 212.6875 51.300781 165.207031 0.242188 106.636719 0.242188 Z M 106.636719 0.242188 " clip-rule="nonzero"/></clipPath><clipPath id="90959f9395"><rect x="0" width="213" y="0" height="229"/></clipPath><clipPath id="f0b848ba3e"><path d="M 762.808594 691.402344 L 1313.820312 691.402344 L 1313.820312 796.828125 L 762.808594 796.828125 Z M 762.808594 691.402344 " clip-rule="nonzero"/></clipPath><clipPath id="22ee1bf8dc"><path d="M 801.058594 691.402344 L 1275.375 691.402344 C 1285.519531 691.402344 1295.246094 695.429688 1302.421875 702.605469 C 1309.59375 709.777344 1313.625 719.507812 1313.625 729.652344 L 1313.625 758.578125 C 1313.625 768.722656 1309.59375 778.449219 1302.421875 785.625 C 1295.246094 792.796875 1285.519531 796.828125 1275.375 796.828125 L 801.058594 796.828125 C 790.914062 796.828125 781.183594 792.796875 774.011719 785.625 C 766.835938 778.449219 762.808594 768.722656 762.808594 758.578125 L 762.808594 729.652344 C 762.808594 719.507812 766.835938 709.777344 774.011719 702.605469 C 781.183594 695.429688 790.914062 691.402344 801.058594 691.402344 Z M 801.058594 691.402344 " clip-rule="nonzero"/></clipPath><clipPath id="64be8faf3c"><path d="M 0.808594 0.402344 L 551.800781 0.402344 L 551.800781 105.828125 L 0.808594 105.828125 Z M 0.808594 0.402344 " clip-rule="nonzero"/></clipPath><clipPath id="56e1b09ba8"><path d="M 39.058594 0.402344 L 513.375 0.402344 C 523.519531 0.402344 533.246094 4.429688 540.421875 11.605469 C 547.59375 18.777344 551.625 28.507812 551.625 38.652344 L 551.625 67.578125 C 551.625 77.722656 547.59375 87.449219 540.421875 94.625 C 533.246094 101.796875 523.519531 105.828125 513.375 105.828125 L 39.058594 105.828125 C 28.914062 105.828125 19.183594 101.796875 12.011719 94.625 C 4.835938 87.449219 0.808594 77.722656 0.808594 67.578125 L 0.808594 38.652344 C 0.808594 28.507812 4.835938 18.777344 12.011719 11.605469 C 19.183594 4.429688 28.914062 0.402344 39.058594 0.402344 Z M 39.058594 0.402344 " clip-rule="nonzero"/></clipPath><clipPath id="83fa4258b9"><rect x="0" width="552" y="0" height="106"/></clipPath><clipPath id="dcaf41e74e"><path d="M 1204.09375 646.242188 L 1248.097656 646.242188 L 1248.097656 754.367188 L 1204.09375 754.367188 Z M 1204.09375 646.242188 " clip-rule="nonzero"/></clipPath><clipPath id="31018a820c"><path d="M 1248.097656 668.246094 L 1248.097656 732.292969 C 1248.097656 738.128906 1245.78125 743.722656 1241.65625 747.851562 C 1237.527344 751.976562 1231.933594 754.292969 1226.097656 754.292969 C 1220.261719 754.292969 1214.664062 751.976562 1210.539062 747.851562 C 1206.410156 743.722656 1204.09375 738.128906 1204.09375 732.292969 L 1204.09375 668.246094 C 1204.09375 662.410156 1206.410156 656.816406 1210.539062 652.6875 C 1214.664062 648.5625 1220.261719 646.242188 1226.097656 646.242188 C 1231.933594 646.242188 1237.527344 648.5625 1241.65625 652.6875 C 1245.78125 656.816406 1248.097656 662.410156 1248.097656 668.246094 Z M 1248.097656 668.246094 " clip-rule="nonzero"/></clipPath><clipPath id="d50c155ea1"><path d="M 0.09375 0.242188 L 44.097656 0.242188 L 44.097656 108.359375 L 0.09375 108.359375 Z M 0.09375 0.242188 " clip-rule="nonzero"/></clipPath><clipPath id="056e9bf1c1"><path d="M 44.097656 22.246094 L 44.097656 86.292969 C 44.097656 92.128906 41.78125 97.722656 37.65625 101.851562 C 33.527344 105.976562 27.933594 108.292969 22.097656 108.292969 C 16.261719 108.292969 10.664062 105.976562 6.539062 101.851562 C 2.410156 97.722656 0.09375 92.128906 0.09375 86.292969 L 0.09375 22.246094 C 0.09375 16.410156 2.410156 10.816406 6.539062 6.6875 C 10.664062 2.5625 16.261719 0.242188 22.097656 0.242188 C 27.933594 0.242188 33.527344 2.5625 37.65625 6.6875 C 41.78125 10.816406 44.097656 16.410156 44.097656 22.246094 Z M 44.097656 22.246094 " clip-rule="nonzero"/></clipPath><clipPath id="9eafbc1ae4"><rect x="0" width="45" y="0" height="109"/></clipPath><clipPath id="67a7745457"><rect x="0" width="1315" y="0" height="998"/></clipPath></defs><g clip-path="url(#d0210e9f32)"><g transform="matrix(1, 0, 0, 1, 0, -0.000000000000101068)"><g clip-path="url(#d5c08811f8)"><g clip-path="url(#c778b6ef2f)"><g clip-path="url(#227a48f79d)"><rect x="-316.8" width="2073.6" fill="#000000" height="2073.599906" y="-316.799986" fill-opacity="1"/></g></g></g></g></g><g transform="matrix(1, 0, 0, 1, 77, 263)"><g clip-path="url(#67a7745457)"><g clip-path="url(#66d2cdb980)"><g clip-path="url(#0e1173ba40)"><g transform="matrix(1, 0, 0, 1, 0, -0.000000000000113687)"><g clip-path="url(#11ff402763)"><g clip-path="url(#4caf4846c8)"><g clip-path="url(#fb79b25b10)"><path fill="#ffffff" d="M 0.535156 0.15625 L 1030.605469 0.15625 L 1030.605469 796.828125 L 0.535156 796.828125 Z M 0.535156 0.15625 " fill-opacity="1" fill-rule="nonzero"/></g></g></g></g></g></g><g clip-path="url(#2b619b2718)"><g clip-path="url(#267b860714)"><g transform="matrix(1, 0, 0, 1, 66, 98)"><g clip-path="url(#c7f17708ce)"><g clip-path="url(#daa1a160b2)"><g clip-path="url(#b399cdbac4)"><path fill="#000000" d="M 0.394531 0.613281 L 847.894531 0.613281 L 847.894531 593.402344 L 0.394531 593.402344 Z M 0.394531 0.613281 " fill-opacity="1" fill-rule="nonzero"/></g></g></g></g></g></g><g clip-path="url(#1af7a61455)"><g clip-path="url(#e6bcf2427c)"><g transform="matrix(1, 0, 0, 1, 260, 512)"><g clip-path="url(#489df05597)"><g clip-path="url(#9f0110662f)"><g clip-path="url(#45a063ac49)"><path fill="#e95c00" d="M 0.859375 0.917969 L 458.414062 0.917969 L 458.414062 483.492188 L 0.859375 483.492188 Z M 0.859375 0.917969 " fill-opacity="1" fill-rule="nonzero"/></g></g></g></g></g></g><g clip-path="url(#80c745b89b)"><g clip-path="url(#924662f187)"><g transform="matrix(1, 0, 0, 1, 383, 640)"><g clip-path="url(#90959f9395)"><g clip-path="url(#dcd80c61dc)"><g clip-path="url(#4ee805ba4c)"><path fill="#000000" d="M 0.585938 0.242188 L 212.6875 0.242188 L 212.6875 228.085938 L 0.585938 228.085938 Z M 0.585938 0.242188 " fill-opacity="1" fill-rule="nonzero"/></g></g></g></g></g></g><g clip-path="url(#f0b848ba3e)"><g clip-path="url(#22ee1bf8dc)"><g transform="matrix(1, 0, 0, 1, 762, 691)"><g clip-path="url(#83fa4258b9)"><g clip-path="url(#64be8faf3c)"><g clip-path="url(#56e1b09ba8)"><path fill="#ffffff" d="M 0.808594 0.402344 L 551.820312 0.402344 L 551.820312 105.828125 L 0.808594 105.828125 Z M 0.808594 0.402344 " fill-opacity="1" fill-rule="nonzero"/></g></g></g></g></g></g><g clip-path="url(#dcaf41e74e)"><g clip-path="url(#31018a820c)"><g transform="matrix(1, 0, 0, 1, 1204, 646)"><g clip-path="url(#9eafbc1ae4)"><g clip-path="url(#d50c155ea1)"><g clip-path="url(#056e9bf1c1)"><path fill="#ffffff" d="M 44.097656 0.242188 L 44.097656 108.367188 L 0.09375 108.367188 L 0.09375 0.242188 Z M 44.097656 0.242188 " fill-opacity="1" fill-rule="nonzero"/></g></g></g></g></g></g></g></g></svg>