<svg xmlns="http://www.w3.org/2000/svg" viewBox="0 0 1200 630" width="1200" height="630"><defs><linearGradient id="bg" x1="0" y1="0" x2="1" y2="1"><stop offset="0" stop-color="#0D0D0D"/><stop offset="1" stop-color="#1A1A1A"/></linearGradient><linearGradient id="orange" x1="0" y1="0" x2="1" y2="1"><stop offset="0" stop-color="#E85D00"/><stop offset="1" stop-color="#FF6A00"/></linearGradient></defs><rect width="1200" height="630" fill="url(#bg)"/><g transform="translate(800,180)"><rect x="0" y="0" width="320" height="180" rx="14" fill="url(#orange)"/><rect x="20" y="20" width="50" height="30" rx="3" fill="#0D0D0D" opacity="0.6"/><rect x="85" y="20" width="50" height="30" rx="3" fill="#0D0D0D" opacity="0.6"/><rect x="150" y="20" width="50" height="30" rx="3" fill="#0D0D0D" opacity="0.6"/><rect x="215" y="20" width="50" height="30" rx="3" fill="#0D0D0D" opacity="0.6"/><circle cx="60" cy="210" r="34" fill="#fff"/><circle cx="60" cy="210" r="18" fill="#0D0D0D"/><circle cx="260" cy="210" r="34" fill="#fff"/><circle cx="260" cy="210" r="18" fill="#0D0D0D"/><rect x="-70" y="85" width="70" height="10" rx="3" fill="#E85D00"/><circle cx="-65" cy="90" r="10" fill="#E85D00"/></g><text x="80" y="170" fill="#fff" font-family="Arial,sans-serif" font-weight="800" font-size="68" letter-spacing="-2">Simple<tspan fill="#E85D00">Trailer</tspan></text><text x="80" y="260" fill="#fff" font-family="Arial,sans-serif" font-weight="800" font-size="54" letter-spacing="-1">Anhanger mieten in Bremen</text><text x="80" y="310" fill="#888" font-family="Arial,sans-serif" font-weight="500" font-size="30">Online buchen, mit dem Handy entsperren, losfahren.</text><g transform="translate(80,400)"><rect x="0" y="0" width="180" height="54" rx="10" fill="#E85D00"/><text x="90" y="35" text-anchor="middle" fill="#fff" font-family="Arial,sans-serif" font-weight="700" font-size="22">Ab 8 EUR</text><rect x="200" y="0" width="180" height="54" rx="10" fill="none" stroke="#383838" stroke-width="2"/><text x="290" y="35" text-anchor="middle" fill="#aaa" font-family="Arial,sans-serif" font-weight="600" font-size="20">24/7 verfugbar</text></g><text x="80" y="570" fill="#444" font-family="Arial,sans-serif" font-weight="400" font-size="22">simpletrailer.de</text></svg>